<svg width="180" height="49" viewBox="0 0 180 49" fill="none" xmlns="http://www.w3.org/2000/svg">
<path d="M13.2014 37.6923C16.2127 37.6923 18.7581 36.9552 20.8377 35.481C22.9174 33.9901 24.3731 31.8626 25.2049 29.0985L19.0659 27.7164C18.6001 29.1068 17.9013 30.1706 16.9697 30.9077C16.0546 31.6448 14.7985 32.0133 13.2014 32.0133C10.9388 32.0133 9.23349 31.2176 8.08554 29.6262C6.95423 28.0347 6.38026 25.9491 6.36362 23.3692C6.38026 20.8732 6.92928 18.8126 8.01068 17.1877C9.10871 15.546 10.839 14.7251 13.2014 14.7251C14.5823 14.7251 15.8134 15.1356 16.8948 15.9564C17.9762 16.7605 18.7498 17.8913 19.2156 19.3487L25.2049 17.7154C24.5727 15.035 23.1919 12.9243 21.0623 11.3831C18.9328 9.82513 16.3375 9.04615 13.2763 9.04615C10.5478 9.04615 8.19368 9.66598 6.21389 10.9056C4.2341 12.1285 2.7035 13.8205 1.6221 15.9815C0.557336 18.1258 0.0166368 20.5884 0 23.3692C0.0166368 26.0998 0.5407 28.5456 1.57219 30.7067C2.62031 32.8677 4.12596 34.5764 6.08911 35.8328C8.05227 37.0725 10.423 37.6923 13.2014 37.6923Z" fill="black"/>
<path d="M37.7423 37.6923C39.8884 37.6923 41.7102 37.3405 43.2075 36.6369C44.7215 35.9166 46.0524 34.8026 47.2004 33.2949V36.9385H52.4659V20.2785C52.4659 19.1058 52.416 18.0253 52.3162 17.0369C52.2164 16.0318 51.9253 15.0518 51.4428 14.0969C50.561 12.3044 49.2051 11.0145 47.3751 10.2272C45.5616 9.43983 43.4571 9.04615 41.0613 9.04615C37.9003 9.04615 35.3798 9.74137 33.4999 11.1318C31.6199 12.5222 30.3472 14.365 29.6817 16.66L35.1719 18.3938C35.6211 17.0034 36.4113 16.0234 37.5426 15.4538C38.6739 14.8843 39.8468 14.5995 41.0613 14.5995C42.8914 14.5995 44.239 14.9764 45.1041 15.7303C45.9692 16.4674 46.46 17.6149 46.5765 19.1728C44.214 19.5246 42.018 19.868 39.9883 20.2031C37.9752 20.5214 36.2616 20.915 34.8475 21.3841C32.7179 22.1212 31.1624 23.1682 30.1808 24.5251C29.1992 25.8653 28.7084 27.5238 28.7084 29.5005C28.7084 30.9915 29.0495 32.3568 29.7316 33.5964C30.4303 34.8361 31.4535 35.8328 32.8011 36.5867C34.1487 37.3238 35.7958 37.6923 37.7423 37.6923ZM38.9401 32.8677C37.526 32.8677 36.4446 32.541 35.6959 31.8877C34.9639 31.2344 34.5979 30.4135 34.5979 29.4251C34.5979 28.5373 34.8807 27.8169 35.4464 27.2641C36.0287 26.7113 36.8356 26.2422 37.8671 25.8569C38.8154 25.5386 39.955 25.2622 41.2859 25.0277C42.6169 24.7764 44.3554 24.4832 46.5016 24.1482C46.485 24.7848 46.4434 25.4968 46.3768 26.2841C46.3103 27.0547 46.1522 27.7499 45.9027 28.3697C45.703 28.9896 45.3121 29.6513 44.7298 30.3549C44.1641 31.0585 43.3988 31.6532 42.4339 32.139C41.4689 32.6248 40.3044 32.8677 38.9401 32.8677Z" fill="black"/>
<path d="M58.2143 36.9385H64.2285V0H58.2143V36.9385Z" fill="black"/>
<path d="M73.5006 49H79.1405L94.1636 9.8H88.1494L80.8375 29.2241L73.301 9.8H67.0372L77.9426 36.7374L73.5006 49Z" fill="black"/>
<path d="M97.3365 49H103.401V35.5564C104.316 36.2265 105.347 36.7458 106.495 37.1144C107.66 37.4997 108.941 37.6923 110.338 37.6923C112.834 37.6923 114.997 37.0641 116.827 35.8077C118.673 34.5513 120.104 32.8426 121.119 30.6815C122.134 28.5205 122.641 26.0831 122.641 23.3692C122.641 20.6219 122.125 18.1677 121.094 16.0067C120.079 13.8456 118.632 12.1453 116.752 10.9056C114.872 9.66598 112.659 9.04615 110.114 9.04615C108.583 9.04615 107.194 9.28069 105.946 9.74975C104.698 10.2188 103.6 10.8889 102.652 11.76V9.8H97.3365V49ZM109.415 32.2646C107.003 32.2646 105.272 31.4438 104.224 29.8021C103.176 28.1436 102.652 25.9993 102.652 23.3692C102.652 20.7224 103.168 18.5781 104.199 16.9364C105.247 15.2947 106.919 14.4738 109.215 14.4738C110.829 14.4738 112.152 14.8759 113.183 15.68C114.231 16.4674 115.005 17.5395 115.504 18.8964C116.02 20.2366 116.278 21.7275 116.278 23.3692C116.278 25.0277 116.028 26.527 115.529 27.8672C115.046 29.2074 114.298 30.2795 113.283 31.0836C112.268 31.8709 110.979 32.2646 109.415 32.2646Z" fill="black"/>
<path d="M137.55 37.6923C141.027 37.6923 143.747 36.9133 145.711 35.3554C147.69 33.7974 148.68 31.6532 148.68 28.9226C148.68 26.8118 148.015 25.1533 146.684 23.9472C145.369 22.741 143.099 21.7191 139.871 20.8815C137.775 20.3455 136.194 19.8932 135.129 19.5246C134.081 19.1561 133.383 18.7875 133.033 18.419C132.684 18.0504 132.509 17.6065 132.509 17.0872C132.509 16.1826 132.942 15.479 133.807 14.9764C134.672 14.4571 135.812 14.2309 137.226 14.2979C138.69 14.3817 139.863 14.7586 140.744 15.4287C141.643 16.0988 142.175 17.0118 142.342 18.1677L148.481 17.0621C148.148 14.6162 146.958 12.673 144.912 11.2323C142.866 9.77487 140.27 9.04615 137.126 9.04615C133.915 9.04615 131.345 9.8 129.415 11.3077C127.485 12.8154 126.52 14.8424 126.52 17.3887C126.52 19.4157 127.194 21.0156 128.541 22.1882C129.905 23.3609 132.276 24.3911 135.654 25.279C137.683 25.815 139.181 26.2674 140.145 26.6359C141.127 26.9877 141.768 27.3479 142.067 27.7164C142.367 28.085 142.516 28.5791 142.516 29.199C142.516 30.2041 142.117 30.9998 141.318 31.5862C140.52 32.1557 139.405 32.4405 137.974 32.4405C136.327 32.4405 134.955 32.0552 133.857 31.2846C132.775 30.514 132.085 29.4586 131.785 28.1185L125.646 29.0733C126.096 31.8039 127.36 33.9231 129.44 35.4308C131.519 36.9385 134.223 37.6923 137.55 37.6923Z" fill="black"/>
<path d="M166.549 37.6923C169.244 37.6923 171.598 37.0892 173.611 35.8831C175.624 34.6602 177.188 32.9766 178.303 30.8323C179.434 28.6713 180 26.1836 180 23.3692C180 20.5716 179.443 18.1007 178.328 15.9564C177.213 13.7954 175.649 12.1034 173.636 10.8805C171.623 9.65761 169.261 9.04615 166.549 9.04615C163.904 9.04615 161.575 9.64923 159.562 10.8554C157.549 12.0615 155.976 13.7368 154.845 15.881C153.714 18.0253 153.148 20.5214 153.148 23.3692C153.148 26.1668 153.697 28.6462 154.795 30.8072C155.91 32.9515 157.474 34.635 159.487 35.8579C161.5 37.0809 163.854 37.6923 166.549 37.6923ZM166.549 32.0133C164.237 32.0133 162.481 31.2344 161.283 29.6764C160.102 28.1017 159.512 25.9993 159.512 23.3692C159.512 20.8062 160.077 18.7289 161.209 17.1374C162.357 15.5292 164.137 14.7251 166.549 14.7251C168.911 14.7251 170.683 15.5125 171.865 17.0872C173.046 18.6451 173.636 20.7391 173.636 23.3692C173.636 25.9156 173.046 27.9928 171.865 29.601C170.7 31.2092 168.928 32.0133 166.549 32.0133Z" fill="black"/>
</svg>
