<svg width="24" height="24" viewBox="0 0 24 24" fill="none" xmlns="http://www.w3.org/2000/svg">
<path d="M10.2211 4C13.6501 4 16.4422 6.79191 16.4422 10.2208C16.4422 11.3865 16.1223 12.4761 15.5629 13.4084C15.2986 13.849 15.3192 14.4248 15.6826 14.7881L19.5523 18.6566C19.7996 18.9038 19.7997 19.3047 19.5525 19.552C19.3053 19.7994 18.9042 19.7994 18.6569 19.5521L14.7884 15.6832C14.4248 15.3196 13.8487 15.2993 13.4077 15.5636C12.4499 16.1376 11.349 16.4441 10.2211 16.4417C6.79202 16.4417 4 13.6498 4 10.2208C4 6.79191 6.79202 4 10.2211 4ZM10.2211 5.24417C7.46514 5.24417 5.24422 7.46501 5.24422 10.2208C5.24422 12.9767 7.46514 15.1975 10.2211 15.1975C12.977 15.1975 15.1979 12.9767 15.1979 10.2208C15.1979 7.46501 12.977 5.24417 10.2211 5.24417Z" fill="#9CA8BF"/>
</svg>
